<svg width="1080" height="1080" version="1.1" viewBox="0 0 285.75 285.75" xmlns="http://www.w3.org/2000/svg">
 <g fill="#f9f9f9">
  <circle cx="142.53" cy="207.79" r="65" stroke-width="4.2333"/>
  <path d="m75.285 164.08c0.87667 1.5518 3.4256 2.6767 5.3125 0.60713 15.492-16.992 21.238-22.22 42.271-28.938 2.0104-0.64207 3.2944-2.3366 3.1665-4.0754-1.0087-13.715-7.4402-76.613-9.4344-91.318-1.2827-9.4583-3.4526-37.86-35.805-35.719-26.747 1.7705-30.635 22.323-30.996 43.704-0.09515 5.6378 0.11448 11.277 0.17173 16.915 0.11624 11.45 5.948 64.544 25.313 98.824z"/>
  <path d="m210.63 164.08c-0.87667 1.5518-3.4256 2.6767-5.3125 0.60713-15.492-16.992-21.238-22.22-42.271-28.938-2.0104-0.64207-3.2944-2.3366-3.1665-4.0754 1.0087-13.715 7.4402-76.613 9.4344-91.318 1.2827-9.4583 3.4526-37.86 35.805-35.719 26.747 1.7705 30.635 22.323 30.996 43.704 0.0951 5.6378-0.11448 11.277-0.17173 16.915-0.11624 11.45-5.948 64.544-25.313 98.824z"/>
 </g>
</svg>
